<svg version="1.1" id="Layer_1" xmlns="http://www.w3.org/2000/svg" xmlns:xlink="http://www.w3.org/1999/xlink" x="0px" y="0px"
	 width="100%" viewBox="0 0 612 408" enable-background="new 0 0 612 408" xml:space="preserve">
<path fill="#000000" opacity="1.000000" stroke="none" 
	d="
M378.000000,409.000000 
	C252.030731,409.000000 126.561478,409.000000 1.092209,409.000000 
	C1.061470,408.864105 1.003792,408.728241 1.003788,408.592346 
	C0.999974,272.792267 1.000000,136.992203 1.000000,1.096068 
	C204.885941,1.096068 408.771942,1.096068 612.828979,1.096068 
	C612.828979,136.999832 612.828979,272.999908 612.828979,409.000000 
	C534.794739,409.000000 456.647369,409.000000 378.000000,409.000000 
M332.024750,378.199951 
	C332.062714,376.818848 332.100708,375.437744 332.714417,373.809906 
	C332.754547,373.208405 332.794647,372.606903 332.985382,371.105957 
	C333.657013,361.633453 334.612030,352.170715 334.937866,342.686340 
	C335.516052,325.858002 335.712463,309.016541 336.606781,291.994751 
	C336.718506,291.666046 336.830231,291.337311 337.074554,290.094177 
	C337.030365,286.394684 336.986176,282.695221 337.064911,278.115570 
	C337.019318,275.747742 336.973755,273.379883 337.059601,270.081360 
	C337.065491,261.787323 337.071381,253.493317 337.608673,244.995544 
	C337.719757,244.666580 337.830872,244.337616 338.073486,243.342087 
	C338.029633,242.893448 337.985779,242.444824 338.061127,241.337784 
	C338.011902,240.896530 337.962646,240.455292 338.180908,239.354248 
	C340.155457,237.570755 341.992493,235.598495 344.131287,234.040497 
	C349.701843,229.982666 355.404755,226.106537 361.689148,221.898590 
	C366.991150,216.634171 371.856812,211.135376 372.011475,202.195038 
	C372.295319,199.456512 372.579163,196.717987 373.006989,193.505249 
	C373.006989,193.505249 372.902649,193.020767 373.053070,192.093475 
	C373.057770,186.460526 373.062469,180.827591 373.629242,174.975067 
	C373.441498,174.585587 373.253754,174.196121 373.042816,173.004150 
	C373.049652,171.397873 373.056488,169.791580 373.628662,167.974564 
	C373.439789,167.588516 373.250916,167.202469 373.033905,165.925812 
	C373.061859,162.635193 373.089813,159.344559 373.714996,155.772263 
	C373.517120,154.827118 373.319244,153.881989 373.051147,152.282883 
	C372.998199,151.849686 372.945221,151.416473 373.029114,150.260376 
	C372.703461,149.454117 372.377808,148.647858 372.022278,146.925140 
	C371.702332,140.608902 371.382355,134.292648 370.967529,127.236610 
	C370.910736,126.495468 370.853943,125.754333 370.967529,124.087997 
	C370.986084,120.978867 371.129822,117.864250 370.993713,114.761909 
	C370.791809,110.160278 370.391571,105.567337 369.975433,100.041962 
	C369.662628,87.659805 369.586945,75.264893 368.921631,62.901699 
	C368.651398,57.879585 367.098328,52.926506 366.041779,47.172153 
	C365.407593,41.744595 362.028107,38.281460 357.395050,36.196693 
	C346.137177,31.130907 334.003632,29.492712 321.894684,29.164164 
	C307.514557,28.773994 293.074310,29.250793 278.707336,30.126495 
	C265.865082,30.909260 253.975418,34.083954 249.983368,49.846691 
	C249.282852,64.219185 248.582321,78.591682 247.171921,93.456345 
	C246.489334,111.649208 245.806747,129.842072 244.975327,148.672546 
	C245.009552,149.106064 245.043777,149.539581 244.945831,150.374100 
	C244.945831,150.374100 244.966507,150.795822 244.177536,151.230515 
	C244.162460,161.474045 244.147400,171.717560 244.028320,182.892303 
	C244.018158,186.053925 243.696487,189.251617 244.057465,192.370285 
	C245.056915,201.004959 245.169006,210.012955 251.486786,217.003448 
	C257.899658,224.099167 265.021912,230.365204 274.053955,233.978973 
	C277.815399,235.483978 279.827942,238.081482 280.075928,242.832260 
	C280.643768,244.113937 281.211639,245.395630 281.030884,247.254425 
	C281.033447,247.881454 281.035980,248.508484 280.912079,249.542374 
	C280.920593,250.276367 280.929108,251.010361 280.372772,252.007263 
	C280.560669,252.423309 280.748566,252.839355 280.900177,253.950714 
	C280.911621,254.878723 280.923035,255.806732 280.372620,257.006439 
	C280.559204,257.427124 280.745789,257.847809 280.846588,258.574432 
	C280.846588,258.574432 280.826721,258.891510 280.303802,259.177155 
	C280.479675,259.824829 280.655548,260.472534 280.873260,261.769714 
	C280.892212,262.420044 280.911163,263.070374 280.372711,264.005127 
	C280.557404,264.432495 280.742126,264.859833 280.874634,265.814575 
	C280.852600,266.166931 280.830566,266.519318 280.254639,267.200104 
	C280.555756,268.124908 280.856873,269.049744 281.035522,270.907990 
	C281.028564,275.662140 280.909332,280.419556 281.047913,285.169464 
	C281.173615,289.476868 281.580200,293.776093 281.930237,298.926666 
	C281.992889,300.624176 282.055542,302.321686 282.008728,304.755615 
	C282.043610,305.497528 282.078491,306.239471 281.953491,307.733795 
	C282.003967,308.497559 282.054413,309.261353 282.016510,310.496490 
	C282.016510,310.496490 282.141907,310.959412 282.008789,311.816803 
	C282.061768,313.547791 282.114746,315.278809 282.032013,317.908783 
	C282.349274,321.324127 282.803711,324.733215 282.960266,328.155914 
	C283.682312,343.941833 284.439209,359.727844 284.944458,375.521423 
	C285.231140,384.483276 287.935516,387.225647 297.840485,386.931671 
	C299.224121,386.963409 300.607788,386.995148 302.412781,387.769531 
	C306.279541,387.528046 310.146271,387.286560 314.911316,386.934021 
	C318.288116,386.664429 321.664948,386.394867 325.856781,385.980652 
	C328.929047,386.423401 331.060974,385.685303 330.990875,381.391815 
	C331.009857,380.973053 331.028839,380.554291 331.569275,379.963562 
	C331.673279,379.648224 331.777252,379.332855 332.024750,378.199951 
z"/>
<path fill="#CBC7C3" opacity="1.000000" stroke="none" 
	d="
M325.041748,386.125305 
	C321.664948,386.394867 318.288116,386.664429 314.283600,386.753479 
	C313.107727,386.370789 312.559540,386.168701 311.932068,385.597229 
	C311.223572,383.037170 310.293243,380.882843 310.023041,378.648712 
	C309.288971,372.579529 310.183563,365.934631 307.998840,360.495514 
	C302.858948,347.699585 304.736633,334.392700 303.738037,321.376556 
	C302.832428,309.572479 304.417664,297.595947 304.494659,285.692780 
	C304.578003,272.814667 304.163971,259.933746 304.027679,247.053391 
	C304.008698,245.260971 304.337189,243.464859 304.487274,241.858551 
	C301.334381,238.131638 298.504486,233.915848 294.820404,230.669342 
	C290.902466,227.216736 286.386444,224.276337 281.742096,221.861252 
	C277.073334,219.433456 271.925049,217.927780 266.726013,215.788193 
	C264.664948,215.022156 262.864838,214.485947 260.962708,213.632141 
	C258.261902,210.203766 255.663132,207.092972 253.453125,203.948151 
	C254.691528,203.053711 255.541138,202.193283 256.640320,201.576630 
	C262.023407,209.267273 269.872772,212.392685 278.008942,215.014786 
	C280.782867,215.908752 282.655701,214.900818 284.051300,212.212524 
	C286.437073,207.616898 290.022217,203.670441 295.341492,203.419052 
	C304.236420,202.998672 313.175751,203.517609 322.087463,204.025024 
	C323.068085,207.445724 323.753632,210.625443 325.101837,213.493668 
	C329.963226,223.836105 328.706390,226.764862 317.875854,230.116333 
	C316.822754,230.442215 315.401215,230.941467 314.996155,231.772400 
	C312.641510,236.602676 310.381073,241.505127 309.996216,247.331451 
	C309.996918,248.110107 309.997772,248.555054 309.768860,249.267334 
	C309.362457,250.691635 309.185883,251.848587 309.009186,253.336975 
	C309.009186,254.110367 309.009247,254.552292 309.015411,255.324646 
	C309.345551,256.437103 309.669617,257.219177 309.994141,258.469788 
	C309.994690,282.553894 309.922668,306.169739 310.041321,329.784637 
	C310.074585,336.404205 310.205688,343.085693 311.118744,349.623291 
	C312.372681,358.601349 314.109772,367.543701 316.258759,376.350372 
	C317.198944,380.203461 317.831055,385.370300 324.217926,385.137390 
	C324.633667,385.568420 324.837708,385.846863 325.041748,386.125305 
M297.027130,225.191193 
	C297.568909,221.001404 298.110687,216.811600 298.652466,212.621811 
	C298.261780,212.406494 297.871094,212.191193 297.480408,211.975876 
	C296.628937,213.024429 295.244690,213.974014 295.027954,215.140488 
	C294.426666,218.377136 294.311371,221.704071 293.658813,225.431595 
	C294.353516,226.398407 295.048218,227.365219 295.742950,228.332016 
	C296.162537,227.574432 296.582123,226.816849 297.027130,225.191193 
M258.494202,206.534821 
	C258.494202,206.534821 258.473267,206.485916 258.494202,206.534821 
z"/>
<path fill="#DBD9D5" opacity="1.000000" stroke="none" 
	d="
M325.449280,386.052979 
	C324.837708,385.846863 324.633667,385.568420 324.153931,384.773102 
	C322.923218,381.449463 321.677185,378.704193 321.068787,375.824219 
	C319.361359,367.741425 318.064178,359.571350 316.323303,351.496460 
	C314.865784,344.735748 312.315826,338.242523 313.842010,331.009399 
	C314.541473,327.694336 313.626099,324.064636 313.705292,320.583588 
	C313.759003,318.220978 313.851654,315.713684 314.658386,313.542938 
	C316.557892,308.431641 317.801941,303.552063 315.666534,298.075073 
	C314.307465,294.589111 313.333069,290.674683 313.391846,286.971497 
	C313.520447,278.869324 314.554779,270.786194 314.958618,262.682281 
	C315.311890,255.592667 316.731537,249.128036 323.375977,245.181091 
	C324.827423,244.318924 327.117401,243.005295 328.042267,243.552933 
	C329.459076,244.391815 330.607483,246.596466 330.816254,248.347076 
	C331.121918,250.909882 330.304169,253.583527 330.300171,256.210449 
	C330.283508,267.110687 330.478638,278.011383 330.438538,288.911377 
	C330.341248,315.361328 330.117188,341.810974 330.127136,368.260712 
	C330.127594,369.509247 331.891907,370.757172 332.834778,372.005402 
	C332.794647,372.606903 332.754547,373.208405 332.031799,373.953125 
	C327.373718,376.491882 328.233124,379.192780 330.849640,382.004669 
	C331.060974,385.685303 328.929047,386.423401 325.449280,386.052979 
z"/>
<path fill="#D6D3CF" opacity="1.000000" stroke="none" 
	d="
M332.910095,371.555664 
	C331.891907,370.757172 330.127594,369.509247 330.127136,368.260712 
	C330.117188,341.810974 330.341248,315.361328 330.438538,288.911377 
	C330.478638,278.011383 330.283508,267.110687 330.300171,256.210449 
	C330.304169,253.583527 331.121918,250.909882 330.816254,248.347076 
	C330.607483,246.596466 329.459076,244.391815 328.042267,243.552933 
	C327.117401,243.005295 324.827423,244.318924 323.375977,245.181091 
	C316.731537,249.128036 315.311890,255.592667 314.958618,262.682281 
	C314.554779,270.786194 313.520447,278.869324 313.391846,286.971497 
	C313.333069,290.674683 314.307465,294.589111 315.666534,298.075073 
	C317.801941,303.552063 316.557892,308.431641 314.658386,313.542938 
	C313.851654,315.713684 313.759003,318.220978 313.705292,320.583588 
	C313.626099,324.064636 314.541473,327.694336 313.842010,331.009399 
	C312.315826,338.242523 314.865784,344.735748 316.323303,351.496460 
	C318.064178,359.571350 319.361359,367.741425 321.068787,375.824219 
	C321.677185,378.704193 322.923218,381.449463 323.942200,384.620483 
	C317.831055,385.370300 317.198944,380.203461 316.258759,376.350372 
	C314.109772,367.543701 312.372681,358.601349 311.118744,349.623291 
	C310.205688,343.085693 310.074585,336.404205 310.041321,329.784637 
	C309.922668,306.169739 309.994690,282.553894 310.202393,258.247375 
	C309.943268,256.702301 309.476288,255.848267 309.009308,254.994232 
	C309.009247,254.552292 309.009186,254.110367 309.324921,253.244461 
	C309.760071,251.546997 309.879364,250.273499 309.998657,249.000000 
	C309.997772,248.555054 309.996918,248.110107 310.327942,247.247498 
	C313.484375,244.560059 316.117828,240.730698 319.174622,240.356110 
	C324.940826,239.649506 331.165009,236.860336 337.026001,241.160400 
	C337.427094,241.576523 337.684509,241.786362 337.941925,241.996185 
	C337.985779,242.444824 338.029633,242.893448 337.814148,243.833817 
	C337.395630,244.616791 337.236450,244.908035 337.077271,245.199295 
	C337.071381,253.493317 337.065491,261.787323 336.760010,270.848846 
	C336.620941,274.076141 336.781464,276.535919 336.941956,278.995728 
	C336.986176,282.695221 337.030365,286.394684 336.814453,290.706757 
	C336.335052,291.574036 336.173126,291.861115 336.068573,292.180573 
	C335.712463,309.016541 335.516052,325.858002 334.937866,342.686340 
	C334.612030,352.170715 333.657013,361.633453 332.910095,371.555664 
z"/>
<path fill="#A9AAA6" opacity="1.000000" stroke="none" 
	d="
M253.064346,203.982178 
	C255.663132,207.092972 258.261902,210.203766 260.946594,214.020081 
	C261.665863,216.172379 261.915253,218.064865 262.994232,218.994431 
	C270.708313,225.640472 278.591400,232.090363 286.877289,238.982315 
	C287.493469,241.063583 288.437866,244.197449 289.347900,247.341248 
	C290.583435,251.609528 292.502472,255.824112 292.877747,260.169708 
	C293.928467,272.337219 294.637146,284.553772 294.897461,296.763428 
	C295.084351,305.531921 294.145782,314.318207 294.044098,323.100433 
	C293.883087,337.007080 293.671844,350.928070 294.137177,364.821014 
	C294.383606,372.177551 296.012451,379.487762 297.017212,386.818909 
	C287.935516,387.225647 285.231140,384.483276 284.944458,375.521423 
	C284.439209,359.727844 283.682312,343.941833 282.960266,328.155914 
	C282.803711,324.733215 282.349274,321.324127 282.456665,317.547791 
	C283.594910,318.874451 284.309113,320.561829 285.021881,322.249847 
	C285.678131,323.803925 286.332916,325.358582 286.988342,326.912994 
	C288.521454,325.587524 288.921936,324.692261 288.959686,323.781982 
	C289.665070,306.770386 290.596741,289.761200 290.862366,272.741852 
	C290.964478,266.197876 289.761108,259.592834 288.720367,253.084732 
	C287.900085,247.955200 286.272949,247.325623 281.038544,249.135513 
	C281.035980,248.508484 281.033447,247.881454 281.448608,246.570953 
	C281.309357,244.608459 280.752350,243.329437 280.195343,242.050415 
	C279.827942,238.081482 277.815399,235.483978 274.053955,233.978973 
	C265.021912,230.365204 257.899658,224.099167 251.486786,217.003448 
	C245.169006,210.012955 245.056915,201.004959 244.057465,192.370285 
	C243.696487,189.251617 244.018158,186.053925 244.328308,182.446716 
	C244.628281,182.001114 245.125763,182.010056 245.347198,182.332977 
	C245.854828,186.426025 245.890839,190.237747 246.508347,193.952820 
	C246.981339,196.798447 246.302505,200.752411 251.202087,201.265564 
	C251.938004,202.333878 252.501175,203.158020 253.064346,203.982178 
z"/>
<path fill="#D1CFC9" opacity="1.000000" stroke="none" 
	d="
M253.453125,203.948151 
	C252.501175,203.158020 251.938004,202.333878 251.169403,200.902176 
	C250.910965,199.325958 250.857956,198.357269 250.853577,196.999969 
	C250.359497,195.404663 249.816803,194.197968 249.237823,192.525208 
	C248.828949,178.287796 248.319870,164.518326 248.130920,150.744446 
	C248.001373,141.299789 248.193481,131.845428 248.468018,122.401985 
	C248.752289,112.622711 249.309555,102.851364 249.832214,92.607307 
	C250.603333,80.112122 251.407013,68.090744 251.874527,56.056297 
	C251.965393,53.717426 250.746887,51.327690 250.132355,48.961414 
	C253.975418,34.083954 265.865082,30.909260 278.707336,30.126495 
	C293.074310,29.250793 307.514557,28.773994 321.894684,29.164164 
	C334.003632,29.492712 346.137177,31.130907 357.395050,36.196693 
	C362.028107,38.281460 365.407593,41.744595 365.802917,47.687057 
	C365.005096,48.474060 364.446198,48.746155 363.626770,48.883919 
	C362.431732,48.498501 361.497162,48.247410 360.496521,47.667999 
	C360.361877,46.901535 360.293274,46.463390 360.529297,45.923283 
	C360.458832,44.188145 360.622467,41.733654 359.611145,41.070202 
	C356.061249,38.741352 352.300262,36.172138 348.265717,35.262215 
	C340.073212,33.414516 331.662537,31.668001 323.318756,31.553286 
	C309.634796,31.365143 295.930115,32.466526 282.244019,33.206161 
	C281.441772,33.249516 280.727142,34.913712 279.596130,35.935318 
	C276.799408,36.658363 274.378265,37.269726 271.628632,37.859894 
	C270.505371,38.154251 269.710602,38.469795 268.634033,38.748917 
	C267.848389,38.949028 267.344513,39.185574 266.470337,39.490028 
	C262.004791,41.173389 258.043488,42.926483 257.259003,48.335083 
	C257.167145,49.409985 257.181305,50.204346 257.093567,51.418182 
	C256.941376,53.557240 256.891083,55.276825 256.684723,57.329056 
	C256.509186,58.389378 256.489685,59.117058 256.351013,60.210022 
	C256.212952,62.383846 256.194061,64.192375 256.085724,66.410751 
	C256.005280,68.213646 256.014313,69.606697 255.917511,71.423401 
	C253.896255,110.077972 252.159851,148.315170 254.208603,186.595581 
	C254.472824,191.532791 255.641205,196.421600 256.390747,201.332840 
	C255.541138,202.193283 254.691528,203.053711 253.453125,203.948151 
z"/>
<path fill="#BAB8B4" opacity="1.000000" stroke="none" 
	d="
M297.428833,386.875305 
	C296.012451,379.487762 294.383606,372.177551 294.137177,364.821014 
	C293.671844,350.928070 293.883087,337.007080 294.044098,323.100433 
	C294.145782,314.318207 295.084351,305.531921 294.897461,296.763428 
	C294.637146,284.553772 293.928467,272.337219 292.877747,260.169708 
	C292.502472,255.824112 290.583435,251.609528 289.347900,247.341248 
	C288.437866,244.197449 287.493469,241.063583 286.877289,238.982315 
	C278.591400,232.090363 270.708313,225.640472 262.994232,218.994431 
	C261.915253,218.064865 261.665863,216.172379 261.048584,214.337677 
	C262.864838,214.485947 264.664948,215.022156 266.744385,216.152008 
	C269.960175,219.869553 272.709015,223.200851 275.877869,226.067963 
	C280.434265,230.190506 285.296356,233.975159 289.924622,238.078644 
	C290.221588,238.502792 290.621948,238.752304 291.278961,239.225708 
	C293.001221,242.172348 294.954041,244.744339 295.851227,247.643051 
	C300.680359,263.245422 297.742157,279.409973 298.872803,295.295868 
	C299.570801,305.102692 299.152161,315.002716 298.966522,324.855835 
	C298.578278,345.463745 299.633301,365.908234 304.692810,385.954102 
	C303.567810,386.326050 302.779633,386.676453 301.991425,387.026886 
	C300.607788,386.995148 299.224121,386.963409 297.428833,386.875305 
z"/>
<path fill="#D6D3CF" opacity="1.000000" stroke="none" 
	d="
M363.887268,49.018253 
	C364.446198,48.746155 365.005096,48.474060 365.846497,48.071991 
	C367.098328,52.926506 368.651398,57.879585 368.921631,62.901699 
	C369.586945,75.264893 369.662628,87.659805 369.760803,100.830193 
	C369.391998,108.689140 369.186859,115.759666 369.160645,122.830849 
	C369.157959,123.556267 370.225983,124.285645 370.797150,125.013184 
	C370.853943,125.754333 370.910736,126.495468 370.750549,127.930038 
	C370.355255,137.710846 370.287811,146.802078 369.972809,155.884720 
	C369.486053,169.917496 368.704742,183.941803 368.412933,197.977310 
	C368.378571,199.630753 370.637939,201.331894 371.834015,203.010925 
	C371.856812,211.135376 366.991150,216.634171 361.279022,221.697968 
	C359.062653,221.690720 357.156494,221.581787 355.470459,222.138901 
	C351.692932,223.387039 348.112396,225.288269 344.289520,226.327240 
	C339.804962,227.546051 337.103638,224.120316 338.647552,219.550095 
	C338.955414,218.638687 339.532928,217.818359 340.216309,216.949982 
	C340.446503,216.943939 340.907074,216.946121 341.241394,216.920013 
	C342.407013,216.574844 343.238281,216.255814 344.423523,215.873596 
	C352.357544,213.301895 360.138397,209.757339 363.130096,202.440399 
	C366.185638,194.967392 366.934265,186.341507 367.539581,178.135254 
	C368.144440,169.934448 367.145416,161.627991 367.161041,153.368439 
	C367.193024,136.458710 367.978333,119.532028 367.439606,102.644669 
	C366.868683,84.749634 365.121002,66.892143 363.887268,49.018253 
z"/>
<path fill="#D1CFC9" opacity="1.000000" stroke="none" 
	d="
M339.986115,216.956039 
	C339.532928,217.818359 338.955414,218.638687 338.647552,219.550095 
	C337.103638,224.120316 339.804962,227.546051 344.289520,226.327240 
	C348.112396,225.288269 351.692932,223.387039 355.470459,222.138901 
	C357.156494,221.581787 359.062653,221.690720 360.961884,221.827637 
	C355.404755,226.106537 349.701843,229.982666 344.131287,234.040497 
	C341.992493,235.598495 340.155457,237.570755 337.842529,239.801071 
	C337.258148,240.449219 337.050873,240.684616 336.882324,240.954117 
	C331.165009,236.860336 324.940826,239.649506 319.174622,240.356110 
	C316.117828,240.730698 313.484375,244.560059 310.328064,246.913788 
	C310.381073,241.505127 312.641510,236.602676 314.996155,231.772400 
	C315.401215,230.941467 316.822754,230.442215 317.875854,230.116333 
	C328.706390,226.764862 329.963226,223.836105 325.101837,213.493668 
	C323.753632,210.625443 323.068085,207.445724 322.471375,204.013626 
	C324.559204,204.133362 326.254242,204.648376 328.127075,205.440460 
	C329.922455,207.551163 331.464905,209.458969 333.180084,211.196228 
	C334.698364,212.734055 336.408844,214.082108 338.114624,215.764496 
	C338.791901,216.328720 339.389008,216.642380 339.986115,216.956039 
z"/>
<path fill="#A2A39E" opacity="1.000000" stroke="none" 
	d="
M280.975311,249.338943 
	C286.272949,247.325623 287.900085,247.955200 288.720367,253.084732 
	C289.761108,259.592834 290.964478,266.197876 290.862366,272.741852 
	C290.596741,289.761200 289.665070,306.770386 288.959686,323.781982 
	C288.921936,324.692261 288.521454,325.587524 286.988342,326.912994 
	C286.332916,325.358582 285.678131,323.803925 285.021881,322.249847 
	C284.309113,320.561829 283.594910,318.874451 282.524536,317.098267 
	C282.114746,315.278809 282.061768,313.547791 282.184387,311.282776 
	C282.515747,310.452454 282.430695,310.211243 282.104858,310.025116 
	C282.054413,309.261353 282.003967,308.497559 282.326111,307.287292 
	C282.505249,305.900238 282.311737,304.959717 282.118164,304.019196 
	C282.055542,302.321686 281.992889,300.624176 282.173950,298.183350 
	C282.303345,288.293182 282.188965,279.146362 282.080017,269.632172 
	C281.659790,268.467102 281.234161,267.669373 280.808533,266.871674 
	C280.830566,266.519318 280.852600,266.166931 280.985718,265.159424 
	C281.041290,264.243134 280.985718,263.981934 280.930115,263.720703 
	C280.911163,263.070374 280.892212,262.420044 281.148804,261.347992 
	C281.715424,260.633118 282.006531,260.339966 282.632202,259.999451 
	C283.646240,258.719940 284.325714,257.487793 285.005219,256.255615 
	C284.552795,256.082458 284.100372,255.909317 283.647949,255.736160 
	C283.187592,256.744080 282.727234,257.752014 281.903564,258.756958 
	C281.302399,258.799835 281.064545,258.845673 280.826721,258.891510 
	C280.826721,258.891510 280.846588,258.574432 280.968079,258.038147 
	C281.037842,257.246124 280.986145,256.990417 280.934448,256.734741 
	C280.923035,255.806732 280.911621,254.878723 280.990723,253.225342 
	C281.033386,252.248093 280.985474,251.996216 280.937592,251.744354 
	C280.929108,251.010361 280.920593,250.276367 280.975311,249.338943 
z"/>
<path fill="#959490" opacity="1.000000" stroke="none" 
	d="
M250.804947,197.388596 
	C250.857956,198.357269 250.910965,199.325958 250.996674,200.658020 
	C246.302505,200.752411 246.981339,196.798447 246.508347,193.952820 
	C245.890839,190.237747 245.854828,186.426025 245.371796,181.863983 
	C245.105469,170.980011 245.035995,160.887909 244.966507,150.795822 
	C244.966507,150.795822 244.945831,150.374100 245.210541,150.030548 
	C245.358215,149.136292 245.241196,148.585617 245.124161,148.034927 
	C245.806747,129.842072 246.489334,111.649208 247.839081,93.225548 
	C248.919968,93.022018 249.333694,93.049286 249.747406,93.076553 
	C249.309555,102.851364 248.752289,112.622711 248.468018,122.401985 
	C248.193481,131.845428 248.001373,141.299789 248.130920,150.744446 
	C248.319870,164.518326 248.828949,178.287796 249.151642,192.889526 
	C249.669479,194.942810 250.237213,196.165695 250.804947,197.388596 
z"/>
<path fill="#CBC7C3" opacity="1.000000" stroke="none" 
	d="
M371.922729,202.602997 
	C370.637939,201.331894 368.378571,199.630753 368.412933,197.977310 
	C368.704742,183.941803 369.486053,169.917496 369.972809,155.884720 
	C370.287811,146.802078 370.355255,137.710846 370.797974,128.299942 
	C371.382355,134.292648 371.702332,140.608902 372.009338,147.723755 
	C372.295044,149.342667 372.593628,150.162979 372.892273,150.983276 
	C372.945221,151.416473 372.998199,151.849686 372.861176,152.823822 
	C372.820068,154.261139 372.968903,155.157547 373.117767,156.053940 
	C373.089813,159.344559 373.061859,162.635193 373.020874,166.713409 
	C373.026337,167.729111 373.044830,167.957214 373.063293,168.185303 
	C373.056488,169.791580 373.049652,171.397873 373.025482,173.752457 
	C373.027832,174.732056 373.047485,174.963348 373.067139,175.194641 
	C373.062469,180.827591 373.057770,186.460526 372.856140,192.653839 
	C372.479889,193.506607 372.547821,193.761688 372.863037,193.979462 
	C372.579163,196.717987 372.295319,199.456512 371.922729,202.602997 
z"/>
<path fill="#A2A39E" opacity="1.000000" stroke="none" 
	d="
M249.832214,92.607307 
	C249.333694,93.049286 248.919968,93.022018 248.194031,92.979462 
	C248.582321,78.591682 249.282852,64.219185 250.057861,49.404053 
	C250.746887,51.327690 251.965393,53.717426 251.874527,56.056297 
	C251.407013,68.090744 250.603333,80.112122 249.832214,92.607307 
z"/>
<path fill="#BAB8B4" opacity="1.000000" stroke="none" 
	d="
M282.074615,269.999542 
	C282.188965,279.146362 282.303345,288.293182 282.140320,297.759460 
	C281.580200,293.776093 281.173615,289.476868 281.047913,285.169464 
	C280.909332,280.419556 281.028564,275.662140 281.325928,270.447723 
	C281.616302,269.987457 282.074615,269.999542 282.074615,269.999542 
z"/>
<path fill="#CBC7C3" opacity="1.000000" stroke="none" 
	d="
M370.882324,124.550591 
	C370.225983,124.285645 369.157959,123.556267 369.160645,122.830849 
	C369.186859,115.759666 369.391998,108.689140 369.810974,101.294563 
	C370.391571,105.567337 370.791809,110.160278 370.993713,114.761909 
	C371.129822,117.864250 370.986084,120.978867 370.882324,124.550591 
z"/>
<path fill="#DBD9D5" opacity="1.000000" stroke="none" 
	d="
M244.572021,151.013168 
	C245.035995,160.887909 245.105469,170.980011 245.150360,181.541077 
	C245.125763,182.010056 244.628281,182.001114 244.380310,181.981110 
	C244.147400,171.717560 244.162460,161.474045 244.572021,151.013168 
z"/>
<path fill="#A9AAA6" opacity="1.000000" stroke="none" 
	d="
M302.202087,387.398193 
	C302.779633,386.676453 303.567810,386.326050 305.127380,385.970825 
	C307.936279,385.966217 309.973816,385.966400 312.011383,385.966583 
	C312.559540,386.168701 313.107727,386.370789 313.834473,386.808960 
	C310.146271,387.286560 306.279541,387.528046 302.202087,387.398193 
z"/>
<path fill="#D6D3CF" opacity="1.000000" stroke="none" 
	d="
M330.920258,381.698242 
	C328.233124,379.192780 327.373718,376.491882 331.743896,374.076508 
	C332.100708,375.437744 332.062714,376.818848 331.774567,378.762787 
	C331.320251,379.568970 331.161377,379.838928 331.047791,380.135529 
	C331.028839,380.554291 331.009857,380.973053 330.920258,381.698242 
z"/>
<path fill="#D6D3CF" opacity="1.000000" stroke="none" 
	d="
M280.135620,242.441345 
	C280.752350,243.329437 281.309357,244.608459 281.822937,246.282379 
	C281.211639,245.395630 280.643768,244.113937 280.135620,242.441345 
z"/>
<path fill="#DBD9D5" opacity="1.000000" stroke="none" 
	d="
M337.003448,278.555664 
	C336.781464,276.535919 336.620941,274.076141 336.694275,271.314209 
	C336.973755,273.379883 337.019318,275.747742 337.003448,278.555664 
z"/>
<path fill="#BAB8B4" opacity="1.000000" stroke="none" 
	d="
M282.063477,304.387390 
	C282.311737,304.959717 282.505249,305.900238 282.406067,306.911072 
	C282.078491,306.239471 282.043610,305.497528 282.063477,304.387390 
z"/>
<path fill="#DBD9D5" opacity="1.000000" stroke="none" 
	d="
M373.416382,155.913101 
	C372.968903,155.157547 372.820068,154.261139 372.896301,153.150787 
	C373.319244,153.881989 373.517120,154.827118 373.416382,155.913101 
z"/>
<path fill="#D6D3CF" opacity="1.000000" stroke="none" 
	d="
M282.080017,269.632172 
	C282.074615,269.999542 281.616302,269.987457 281.387146,269.981018 
	C280.856873,269.049744 280.555756,268.124908 280.531555,267.035889 
	C281.234161,267.669373 281.659790,268.467102 282.080017,269.632172 
z"/>
<path fill="#D6D3CF" opacity="1.000000" stroke="none" 
	d="
M280.565247,259.034332 
	C281.064545,258.845673 281.302399,258.799835 281.875366,259.080933 
	C282.239502,259.620911 282.268555,259.833862 282.297607,260.046814 
	C282.006531,260.339966 281.715424,260.633118 281.127869,261.023254 
	C280.655548,260.472534 280.479675,259.824829 280.565247,259.034332 
z"/>
<path fill="#DBD9D5" opacity="1.000000" stroke="none" 
	d="
M372.960693,150.621826 
	C372.593628,150.162979 372.295044,149.342667 372.024292,148.181976 
	C372.377808,148.647858 372.703461,149.454117 372.960693,150.621826 
z"/>
<path fill="#DBD9D5" opacity="1.000000" stroke="none" 
	d="
M337.026001,241.160400 
	C337.050873,240.684616 337.258148,240.449219 337.708740,240.130966 
	C337.962646,240.455292 338.011902,240.896530 338.001526,241.666992 
	C337.684509,241.786362 337.427094,241.576523 337.026001,241.160400 
z"/>
<path fill="#A9AAA6" opacity="1.000000" stroke="none" 
	d="
M245.049744,148.353729 
	C245.241196,148.585617 245.358215,149.136292 245.276611,149.830048 
	C245.043777,149.539581 245.009552,149.106064 245.049744,148.353729 
z"/>
<path fill="#D6D3CF" opacity="1.000000" stroke="none" 
	d="
M280.655182,251.875809 
	C280.985474,251.996216 281.033386,252.248093 281.008881,252.877686 
	C280.748566,252.839355 280.560669,252.423309 280.655182,251.875809 
z"/>
<path fill="#D6D3CF" opacity="1.000000" stroke="none" 
	d="
M280.653534,256.870605 
	C280.986145,256.990417 281.037842,257.246124 281.010956,257.885193 
	C280.745789,257.847809 280.559204,257.427124 280.653534,256.870605 
z"/>
<path fill="#D6D3CF" opacity="1.000000" stroke="none" 
	d="
M280.651428,263.862915 
	C280.985718,263.981934 281.041290,264.243134 281.011841,264.895752 
	C280.742126,264.859833 280.557404,264.432495 280.651428,263.862915 
z"/>
<path fill="#DBD9D5" opacity="1.000000" stroke="none" 
	d="
M337.342957,245.097412 
	C337.236450,244.908035 337.395630,244.616791 337.748413,244.167084 
	C337.830872,244.337616 337.719757,244.666580 337.342957,245.097412 
z"/>
<path fill="#DBD9D5" opacity="1.000000" stroke="none" 
	d="
M373.345978,168.079926 
	C373.044830,167.957214 373.026337,167.729111 373.034973,167.158707 
	C373.250916,167.202469 373.439789,167.588516 373.345978,168.079926 
z"/>
<path fill="#DBD9D5" opacity="1.000000" stroke="none" 
	d="
M336.337677,292.087646 
	C336.173126,291.861115 336.335052,291.574036 336.748169,291.163971 
	C336.830231,291.337311 336.718506,291.666046 336.337677,292.087646 
z"/>
<path fill="#BAB8B4" opacity="1.000000" stroke="none" 
	d="
M282.060669,310.260803 
	C282.430695,310.211243 282.515747,310.452454 282.250946,310.854065 
	C282.141907,310.959412 282.016510,310.496490 282.060669,310.260803 
z"/>
<path fill="#DBD9D5" opacity="1.000000" stroke="none" 
	d="
M372.934998,193.742355 
	C372.547821,193.761688 372.479889,193.506607 372.780945,193.117493 
	C372.902649,193.020767 373.006989,193.505249 372.934998,193.742355 
z"/>
<path fill="#DBD9D5" opacity="1.000000" stroke="none" 
	d="
M331.308533,380.049561 
	C331.161377,379.838928 331.320251,379.568970 331.702820,379.171570 
	C331.777252,379.332855 331.673279,379.648224 331.308533,380.049561 
z"/>
<path fill="#DBD9D5" opacity="1.000000" stroke="none" 
	d="
M373.348206,175.084854 
	C373.047485,174.963348 373.027832,174.732056 373.037079,174.153702 
	C373.253754,174.196121 373.441498,174.585587 373.348206,175.084854 
z"/>
<path fill="#302C2C" opacity="1.000000" stroke="none" 
	d="
M327.949249,205.163391 
	C326.254242,204.648376 324.559204,204.133362 322.480286,203.629761 
	C313.175751,203.517609 304.236420,202.998672 295.341492,203.419052 
	C290.022217,203.670441 286.437073,207.616898 284.051300,212.212524 
	C282.655701,214.900818 280.782867,215.908752 278.008942,215.014786 
	C269.872772,212.392685 262.023407,209.267273 256.640320,201.576630 
	C255.641205,196.421600 254.472824,191.532791 254.208603,186.595581 
	C252.159851,148.315170 253.896255,110.077972 256.288757,71.423523 
	C257.508118,70.999832 258.250366,70.999664 258.994202,71.463547 
	C258.705353,76.479347 258.195374,81.031021 258.193939,85.582848 
	C258.192780,89.231812 258.571198,93.065941 263.850708,93.265091 
	C263.859222,94.123894 263.835205,94.614265 263.521118,95.030930 
	C262.634186,95.826454 261.471100,96.744560 261.541138,97.556244 
	C261.805786,100.622459 262.703918,103.636414 262.936859,106.702446 
	C263.398712,112.781578 263.576172,118.882309 264.006592,125.162125 
	C264.293365,125.655518 264.538910,125.822426 264.949036,126.316467 
	C264.632507,136.514923 264.245483,146.247757 263.507141,156.136856 
	C262.768463,157.492828 262.053955,158.690033 262.044647,159.892685 
	C261.958496,171.010254 261.962738,182.128967 262.037994,193.246704 
	C262.046448,194.496216 262.657074,195.741669 263.354370,197.166473 
	C287.479553,197.204071 311.238800,197.064209 335.263062,196.957214 
	C335.703735,197.018951 335.879395,197.047821 336.385345,197.309113 
	C342.806732,198.025970 348.897888,198.510437 354.844513,199.299194 
	C353.336365,200.580673 351.143860,202.667618 350.737030,202.363770 
	C346.565918,199.248260 342.515747,200.151382 338.194458,201.800812 
	C337.208313,202.177200 335.674316,200.888260 334.511810,201.081940 
	C332.296600,201.451035 330.167358,202.336197 327.996582,203.366531 
	C327.976898,204.205124 327.963074,204.684250 327.949249,205.163391 
z"/>
<path fill="#C3BFBC" opacity="1.000000" stroke="none" 
	d="
M311.932068,385.597229 
	C309.973816,385.966400 307.936279,385.966217 305.464172,385.949341 
	C299.633301,365.908234 298.578278,345.463745 298.966522,324.855835 
	C299.152161,315.002716 299.570801,305.102692 298.872803,295.295868 
	C297.742157,279.409973 300.680359,263.245422 295.851227,247.643051 
	C294.954041,244.744339 293.001221,242.172348 291.149780,239.012085 
	C290.557922,238.307953 290.312622,238.084427 290.027985,237.904037 
	C285.296356,233.975159 280.434265,230.190506 275.877869,226.067963 
	C272.709015,223.200851 269.960175,219.869553 267.005310,216.381836 
	C271.925049,217.927780 277.073334,219.433456 281.742096,221.861252 
	C286.386444,224.276337 290.902466,227.216736 294.820404,230.669342 
	C298.504486,233.915848 301.334381,238.131638 304.487274,241.858551 
	C304.337189,243.464859 304.008698,245.260971 304.027679,247.053391 
	C304.163971,259.933746 304.578003,272.814667 304.494659,285.692780 
	C304.417664,297.595947 302.832428,309.572479 303.738037,321.376556 
	C304.736633,334.392700 302.858948,347.699585 307.998840,360.495514 
	C310.183563,365.934631 309.288971,372.579529 310.023041,378.648712 
	C310.293243,380.882843 311.223572,383.037170 311.932068,385.597229 
z"/>
<path fill="#DBD9D5" opacity="1.000000" stroke="none" 
	d="
M294.004059,224.995331 
	C294.311371,221.704071 294.426666,218.377136 295.027954,215.140488 
	C295.244690,213.974014 296.628937,213.024429 297.480408,211.975876 
	C297.871094,212.191193 298.261780,212.406494 298.652466,212.621811 
	C298.110687,216.811600 297.568909,221.001404 296.724243,225.487396 
	C295.615601,225.520844 294.809814,225.258087 294.004059,224.995331 
z"/>
<path fill="#C3BFBC" opacity="1.000000" stroke="none" 
	d="
M293.831421,225.213470 
	C294.809814,225.258087 295.615601,225.520844 296.711548,225.921448 
	C296.582123,226.816849 296.162537,227.574432 295.742950,228.332016 
	C295.048218,227.365219 294.353516,226.398407 293.831421,225.213470 
z"/>
<path fill="#D1CFC9" opacity="1.000000" stroke="none" 
	d="
M309.768860,249.267334 
	C309.879364,250.273499 309.760071,251.546997 309.325012,252.913025 
	C309.185883,251.848587 309.362457,250.691635 309.768860,249.267334 
z"/>
<path fill="#D1CFC9" opacity="1.000000" stroke="none" 
	d="
M309.015411,255.324646 
	C309.476288,255.848267 309.943268,256.702301 310.201965,257.778778 
	C309.669617,257.219177 309.345551,256.437103 309.015411,255.324646 
z"/>
<path fill="#D1CFC9" opacity="1.000000" stroke="none" 
	d="
M258.483734,206.510376 
	C258.473267,206.485916 258.494202,206.534821 258.483734,206.510376 
z"/>
<path fill="#262223" opacity="1.000000" stroke="none" 
	d="
M263.818207,92.896667 
	C258.571198,93.065941 258.192780,89.231812 258.193939,85.582848 
	C258.195374,81.031021 258.705353,76.479347 259.292603,71.270432 
	C260.055969,69.074890 260.522491,67.536530 260.992188,65.648544 
	C260.991608,63.533413 260.987885,61.767899 260.987183,59.667912 
	C260.986176,58.887463 260.982086,58.441483 260.981903,57.567162 
	C260.986755,55.424633 260.987701,53.710453 261.217041,51.763462 
	C262.293213,50.019974 263.141022,48.509296 264.011169,46.647739 
	C265.020691,44.858551 266.007904,43.420246 267.329956,41.884743 
	C268.081787,40.786816 268.498810,39.786079 268.915833,38.785343 
	C269.710602,38.469795 270.505371,38.154251 271.833344,38.190735 
	C276.243774,38.688110 280.121002,38.833450 284.228455,39.251545 
	C286.130035,41.240551 287.732117,43.032722 289.499084,44.644138 
	C290.532501,45.586575 291.829071,46.240490 292.797119,47.302639 
	C289.085510,51.047047 292.273621,53.293221 293.827087,56.093681 
	C290.728271,56.931152 287.906708,57.710453 285.040100,57.949944 
	C278.713531,58.478481 272.364197,58.735054 265.816467,59.244358 
	C265.348877,59.598022 265.089050,59.809917 264.537201,60.086113 
	C264.380981,61.089878 264.516754,62.029339 264.740234,63.301613 
	C264.742798,64.080345 264.657654,64.526260 264.309631,65.235542 
	C263.699646,67.558296 263.029602,69.623108 263.064026,71.676102 
	C263.182648,78.751854 263.547272,85.823471 263.818207,92.896667 
z"/>
<path fill="#BAB8B4" opacity="1.000000" stroke="none" 
	d="
M363.626770,48.883919 
	C365.121002,66.892143 366.868683,84.749634 367.439606,102.644669 
	C367.978333,119.532028 367.193024,136.458710 367.161041,153.368439 
	C367.145416,161.627991 368.144440,169.934448 367.539581,178.135254 
	C366.934265,186.341507 366.185638,194.967392 363.130096,202.440399 
	C360.138397,209.757339 352.357544,213.301895 344.307709,215.381500 
	C343.761688,214.623917 343.685394,214.295242 343.831116,213.742920 
	C347.789948,211.428848 351.526733,209.338470 355.164001,207.224152 
	C355.064423,207.200211 355.247345,207.292328 355.564697,207.172424 
	C364.419342,200.964371 363.519745,191.793533 363.822601,182.542023 
	C363.905853,179.064316 363.909088,176.033951 364.010956,172.547531 
	C364.110474,167.727982 364.111359,163.364487 364.210449,158.540741 
	C363.992859,140.044785 363.677094,122.009079 363.458954,103.537621 
	C363.356567,100.734024 363.156525,98.366180 363.029114,95.539276 
	C362.114532,79.412117 361.127350,63.744015 360.255402,48.107147 
	C360.370636,48.138386 360.562592,47.996323 360.562592,47.996323 
	C361.497162,48.247410 362.431732,48.498501 363.626770,48.883919 
z"/>
<path fill="#BAB8B4" opacity="1.000000" stroke="none" 
	d="
M279.971741,35.823631 
	C280.727142,34.913712 281.441772,33.249516 282.244019,33.206161 
	C295.930115,32.466526 309.634796,31.365143 323.318756,31.553286 
	C331.662537,31.668001 340.073212,33.414516 348.265717,35.262215 
	C352.300262,36.172138 356.061249,38.741352 359.611145,41.070202 
	C360.622467,41.733654 360.458832,44.188145 360.322754,45.657681 
	C358.545288,44.311676 357.279083,43.129311 355.791321,41.673557 
	C348.083221,39.414734 340.703949,36.616726 333.087982,35.611477 
	C316.774536,33.458221 300.346558,33.134708 283.595734,35.820045 
	C282.119415,35.790325 281.045563,35.806980 279.971741,35.823631 
z"/>
<path fill="#302C2C" opacity="1.000000" stroke="none" 
	d="
M266.995117,41.981941 
	C266.007904,43.420246 265.020691,44.858551 263.597900,46.669662 
	C261.229919,47.379826 259.297485,47.717182 257.365051,48.054543 
	C258.043488,42.926483 262.004791,41.173389 266.505249,39.916275 
	C266.938721,40.843716 266.966919,41.412830 266.995117,41.981941 
z"/>
<path fill="#302C2C" opacity="1.000000" stroke="none" 
	d="
M279.596130,35.935318 
	C281.045563,35.806980 282.119415,35.790325 283.595886,36.209442 
	C283.998444,37.423077 283.998322,38.200932 283.998230,38.978790 
	C280.121002,38.833450 276.243774,38.688110 272.161835,38.211929 
	C274.378265,37.269726 276.799408,36.658363 279.596130,35.935318 
z"/>
<path fill="#302C2C" opacity="1.000000" stroke="none" 
	d="
M260.984131,60.002380 
	C260.987885,61.767899 260.991608,63.533413 260.591309,65.648788 
	C258.849945,65.999413 257.512543,66.000160 256.175171,66.000908 
	C256.194061,64.192375 256.212952,62.383846 256.802002,60.243912 
	C258.576172,59.942467 259.780151,59.972424 260.984131,60.002380 
z"/>
<path fill="#302C2C" opacity="1.000000" stroke="none" 
	d="
M260.988678,51.996273 
	C260.987701,53.710453 260.986755,55.424633 260.631714,57.511066 
	C259.132050,57.587681 257.986450,57.292046 256.840820,56.996407 
	C256.891083,55.276825 256.941376,53.557240 257.424652,51.430000 
	C258.901337,51.346981 259.945007,51.671627 260.988678,51.996273 
z"/>
<path fill="#2E2B2D" opacity="1.000000" stroke="none" 
	d="
M256.085693,66.410751 
	C257.512543,66.000160 258.849945,65.999413 260.588165,65.998413 
	C260.522491,67.536530 260.055969,69.074890 259.291016,70.806366 
	C258.250366,70.999664 257.508118,70.999832 256.394623,70.999878 
	C256.014313,69.606697 256.005280,68.213646 256.085693,66.410751 
z"/>
<path fill="#2E2B2D" opacity="1.000000" stroke="none" 
	d="
M261.217041,51.763462 
	C259.945007,51.671627 258.901337,51.346981 257.526581,51.010521 
	C257.181305,50.204346 257.167145,49.409985 257.259003,48.335083 
	C259.297485,47.717182 261.229919,47.379826 263.575623,47.020546 
	C263.141022,48.509296 262.293213,50.019974 261.217041,51.763462 
z"/>
<path fill="#332F2E" opacity="1.000000" stroke="none" 
	d="
M356.012817,41.946953 
	C357.279083,43.129311 358.545288,44.311676 360.018066,45.759644 
	C360.293274,46.463390 360.361877,46.901535 360.496521,47.667999 
	C360.562592,47.996323 360.370636,48.138386 359.898438,48.028774 
	C358.288452,45.928425 357.150635,43.937691 356.012817,41.946953 
z"/>
<path fill="#2E2B2D" opacity="1.000000" stroke="none" 
	d="
M256.684753,57.329056 
	C257.986450,57.292046 259.132050,57.587681 260.627869,57.939415 
	C260.982086,58.441483 260.986176,58.887463 260.987183,59.667908 
	C259.780151,59.972424 258.576172,59.942467 256.921204,59.878624 
	C256.489685,59.117058 256.509186,58.389378 256.684753,57.329056 
z"/>
<path fill="#CBC7C3" opacity="1.000000" stroke="none" 
	d="
M250.853577,196.999969 
	C250.237213,196.165695 249.669479,194.942810 249.187912,193.355591 
	C249.816803,194.197968 250.359497,195.404663 250.853577,196.999969 
z"/>
<path fill="#2E2B2D" opacity="1.000000" stroke="none" 
	d="
M267.329956,41.884747 
	C266.966919,41.412830 266.938721,40.843716 266.875580,39.848358 
	C267.344513,39.185574 267.848389,38.949028 268.634033,38.748917 
	C268.498810,39.786079 268.081787,40.786816 267.329956,41.884747 
z"/>
<path fill="#A9AAA6" opacity="1.000000" stroke="none" 
	d="
M289.924622,238.078644 
	C290.312622,238.084427 290.557922,238.307953 290.893127,238.788208 
	C290.621948,238.752304 290.221588,238.502792 289.924622,238.078644 
z"/>
<path fill="#BAB8B4" opacity="1.000000" stroke="none" 
	d="
M340.216309,216.949982 
	C339.389008,216.642380 338.791901,216.328720 338.088196,215.624405 
	C337.981598,215.233749 337.978912,214.948837 338.320190,214.987900 
	C339.103577,214.918579 339.545654,214.810196 340.240448,214.758667 
	C340.659088,214.863266 340.825043,214.910980 340.978943,215.290298 
	C340.946991,216.063324 340.927032,216.504715 340.907074,216.946121 
	C340.907074,216.946121 340.446503,216.943939 340.216309,216.949982 
z"/>
<path fill="#D1CFC9" opacity="1.000000" stroke="none" 
	d="
M341.241394,216.920013 
	C340.927032,216.504715 340.946991,216.063324 341.277679,215.099564 
	C342.261963,214.373672 342.935547,214.170135 343.609100,213.966583 
	C343.685394,214.295242 343.761688,214.623917 343.953796,215.444672 
	C343.238281,216.255814 342.407013,216.574844 341.241394,216.920013 
z"/>
<path fill="#332F2E" opacity="1.000000" stroke="none" 
	d="
M328.127075,205.440460 
	C327.963074,204.684250 327.976898,204.205124 328.314148,203.509415 
	C331.751373,207.178177 334.865143,211.063507 337.978912,214.948837 
	C337.978912,214.948837 337.981598,215.233749 338.008057,215.373840 
	C336.408844,214.082108 334.698364,212.734055 333.180084,211.196228 
	C331.464905,209.458969 329.922455,207.551163 328.127075,205.440460 
z"/>
<path fill="#A9AAA6" opacity="1.000000" stroke="none" 
	d="
M282.632202,259.999451 
	C282.268555,259.833862 282.239502,259.620911 282.238678,259.083923 
	C282.727234,257.752014 283.187592,256.744080 283.647949,255.736160 
	C284.100372,255.909317 284.552795,256.082458 285.005219,256.255615 
	C284.325714,257.487793 283.646240,258.719940 282.632202,259.999451 
z"/>
<path fill="#000000" opacity="1.000000" stroke="none" 
	d="
M263.858459,155.980606 
	C264.245483,146.247757 264.632507,136.514923 264.948090,125.857056 
	C264.862488,115.672516 264.848358,106.413010 264.947754,96.686584 
	C265.358337,85.823418 265.655457,75.427147 265.897644,64.572762 
	C265.152985,60.624378 266.638397,59.540108 270.069916,59.726208 
	C274.960754,59.991455 279.875366,59.817570 285.259430,59.879261 
	C298.165649,59.609455 310.592316,59.291656 323.361877,59.171658 
	C324.477600,59.627991 325.257538,60.130222 326.022095,60.107853 
	C335.004425,59.845093 343.984467,59.503654 353.260437,59.414177 
	C354.374664,61.718304 355.897308,63.787598 355.907990,65.864655 
	C356.098511,102.941551 356.105713,140.019394 356.114288,177.554108 
	C356.020203,183.996918 355.964142,189.982620 355.708282,196.075790 
	C355.259308,196.367279 355.070221,196.600113 354.531860,196.918381 
	C348.100037,196.995560 342.077576,197.036133 336.055084,197.076706 
	C335.879395,197.047821 335.703735,197.018951 335.026428,196.600159 
	C311.156189,196.210251 287.787659,196.210251 263.852509,196.210251 
	C263.852509,188.432678 263.852509,181.331894 263.888428,173.748901 
	C263.902405,167.504669 263.880432,161.742630 263.858459,155.980606 
z"/>
<path fill="#2E2B2D" opacity="1.000000" stroke="none" 
	d="
M323.018951,58.973854 
	C310.592316,59.291656 298.165649,59.609455 284.936340,59.653591 
	C278.097137,59.287479 272.060669,59.195034 266.024170,59.102589 
	C272.364197,58.735054 278.713531,58.478481 285.040100,57.949944 
	C287.906708,57.710453 290.728271,56.931152 294.209900,56.116180 
	C296.662781,52.390961 296.688171,49.320114 293.007233,47.024212 
	C291.829071,46.240490 290.532501,45.586575 289.499084,44.644138 
	C287.732117,43.032722 286.130035,41.240551 284.228455,39.251545 
	C283.998322,38.200932 283.998444,37.423077 283.998383,36.255821 
	C300.346558,33.134708 316.774536,33.458221 333.087982,35.611477 
	C340.703949,36.616726 348.083221,39.414734 355.791321,41.673561 
	C357.150635,43.937691 358.288452,45.928425 359.783203,47.997536 
	C361.127350,63.744015 362.114532,79.412117 362.669373,95.604736 
	C361.185730,97.396172 359.005768,99.188614 359.303253,99.827560 
	C360.073059,101.480904 361.935272,102.625595 363.361328,103.973381 
	C363.677094,122.009079 363.992859,140.044785 363.843506,158.638123 
	C359.769165,163.370331 359.993042,169.159698 363.912292,173.003601 
	C363.909088,176.033951 363.905853,179.064316 363.492249,182.620758 
	C359.525513,184.848862 358.281830,187.452728 359.841278,191.230972 
	C361.660583,195.638779 359.997070,199.133057 357.119690,202.515854 
	C356.071960,203.747681 355.847443,205.679749 355.247314,207.292328 
	C355.247345,207.292328 355.064423,207.200211 354.741638,207.159424 
	C349.905334,208.728348 345.361084,210.261475 340.915955,212.042068 
	C340.343292,212.271454 340.284546,213.783783 339.987732,214.701813 
	C339.545654,214.810196 339.103577,214.918579 338.320190,214.987900 
	C334.865143,211.063507 331.751373,207.178177 328.320007,203.149963 
	C330.167358,202.336197 332.296600,201.451035 334.511810,201.081940 
	C335.674316,200.888260 337.208313,202.177200 338.194458,201.800812 
	C342.515747,200.151382 346.565918,199.248260 350.737030,202.363770 
	C351.143860,202.667618 353.336365,200.580673 354.845032,198.947266 
	C354.973785,197.821289 354.957520,197.351532 354.941223,196.881760 
	C355.070221,196.600113 355.259308,196.367279 356.017578,195.905609 
	C356.751526,192.123566 357.173401,188.617096 357.137146,185.115372 
	C357.109406,182.439484 356.501923,179.769592 356.152313,177.097031 
	C356.105713,140.019394 356.098511,102.941551 355.907990,65.864655 
	C355.897308,63.787598 354.374664,61.718304 352.960999,59.118702 
	C346.299103,58.391781 340.231567,58.033157 334.165039,58.049965 
	C330.448883,58.060261 326.734253,58.646347 323.018951,58.973854 
M320.940247,49.765392 
	C315.643524,49.218834 310.346832,48.672276 305.050110,48.125721 
	C310.994843,56.369274 319.083649,53.038677 327.197540,53.616524 
	C326.080139,51.311672 325.282440,49.666298 323.887817,46.789700 
	C323.016663,48.398300 322.775421,49.040039 322.362976,49.540741 
	C322.055573,49.913933 321.526642,50.104656 320.940247,49.765392 
z"/>
<path fill="#959490" opacity="1.000000" stroke="none" 
	d="
M263.852478,174.231110 
	C263.852509,181.331894 263.852509,188.432678 263.852509,196.210251 
	C287.787659,196.210251 311.156189,196.210251 334.761414,196.567291 
	C311.238800,197.064209 287.479553,197.204071 263.391785,196.700485 
	C263.326355,188.781723 263.589417,181.506424 263.852478,174.231110 
z"/>
<path fill="#262223" opacity="1.000000" stroke="none" 
	d="
M263.888428,173.748901 
	C263.589417,181.506424 263.326355,188.781723 263.025879,196.523010 
	C262.657074,195.741669 262.046448,194.496216 262.037994,193.246704 
	C261.962738,182.128967 261.958496,171.010254 262.044647,159.892685 
	C262.053955,158.690033 262.768463,157.492828 263.507141,156.136856 
	C263.880432,161.742630 263.902405,167.504669 263.888428,173.748901 
z"/>
<path fill="#332F2E" opacity="1.000000" stroke="none" 
	d="
M265.952576,65.030884 
	C265.655457,75.427147 265.358337,85.823418 264.786835,96.687653 
	C264.512421,97.155624 264.191101,97.174950 264.113953,96.832245 
	C263.961609,96.027908 263.886414,95.566269 263.811188,95.104637 
	C263.835205,94.614265 263.859222,94.123894 263.850708,93.265091 
	C263.547272,85.823471 263.182648,78.751854 263.064026,71.676102 
	C263.029602,69.623108 263.699646,67.558296 264.652222,65.309174 
	C265.489319,65.089928 265.720947,65.060402 265.952576,65.030884 
z"/>
<path fill="#262223" opacity="1.000000" stroke="none" 
	d="
M263.521118,95.030930 
	C263.886414,95.566269 263.961609,96.027908 264.112000,97.291504 
	C264.081848,107.053688 263.976532,116.013901 263.871216,124.974113 
	C263.576172,118.882309 263.398712,112.781578 262.936859,106.702446 
	C262.703918,103.636414 261.805786,100.622459 261.541138,97.556244 
	C261.471100,96.744560 262.634186,95.826454 263.521118,95.030930 
z"/>
<path fill="#959490" opacity="1.000000" stroke="none" 
	d="
M264.006592,125.162125 
	C263.976532,116.013901 264.081848,107.053688 264.189148,97.634216 
	C264.191101,97.174950 264.512421,97.155624 264.673340,97.154556 
	C264.848358,106.413010 264.862488,115.672516 264.877594,125.391441 
	C264.538910,125.822426 264.293365,125.655518 264.006592,125.162125 
z"/>
<path fill="#332F2E" opacity="1.000000" stroke="none" 
	d="
M354.531891,196.918381 
	C354.957520,197.351532 354.973785,197.821289 354.989532,198.642990 
	C348.897888,198.510437 342.806732,198.025970 336.385345,197.309113 
	C342.077576,197.036133 348.100037,196.995560 354.531891,196.918381 
z"/>
<path fill="#959490" opacity="1.000000" stroke="none" 
	d="
M292.797119,47.302639 
	C296.688171,49.320114 296.662781,52.390961 294.466766,55.813118 
	C292.273621,53.293221 289.085510,51.047047 292.797119,47.302639 
z"/>
<path fill="#959490" opacity="1.000000" stroke="none" 
	d="
M265.897644,64.572762 
	C265.720947,65.060402 265.489319,65.089928 264.915131,65.045815 
	C264.657654,64.526260 264.742798,64.080345 264.904541,62.957745 
	C264.930481,61.527985 264.879822,60.774899 264.829193,60.021812 
	C265.089050,59.809917 265.348877,59.598022 265.816467,59.244358 
	C272.060669,59.195034 278.097137,59.287479 284.456726,59.605595 
	C279.875366,59.817570 274.960754,59.991455 270.069916,59.726208 
	C266.638397,59.540108 265.152985,60.624378 265.897644,64.572762 
z"/>
<path fill="#332F2E" opacity="1.000000" stroke="none" 
	d="
M264.537201,60.086117 
	C264.879822,60.774899 264.930481,61.527985 264.816833,62.624935 
	C264.516754,62.029339 264.380981,61.089878 264.537201,60.086117 
z"/>
<path fill="#332F2E" opacity="1.000000" stroke="none" 
	d="
M355.564697,207.172424 
	C355.847443,205.679749 356.071960,203.747681 357.119690,202.515854 
	C359.997070,199.133057 361.660583,195.638779 359.841278,191.230972 
	C358.281830,187.452728 359.525513,184.848862 363.412231,183.068100 
	C363.519745,191.793533 364.419342,200.964371 355.564697,207.172424 
z"/>
<path fill="#332F2E" opacity="1.000000" stroke="none" 
	d="
M340.240417,214.758667 
	C340.284546,213.783783 340.343292,212.271454 340.915955,212.042068 
	C345.361084,210.261475 349.905334,208.728348 354.841217,207.183380 
	C351.526733,209.338470 347.789948,211.428848 343.831116,213.742920 
	C342.935547,214.170135 342.261963,214.373672 341.289673,214.767944 
	C340.825043,214.910980 340.659088,214.863266 340.240417,214.758667 
z"/>
<path fill="#332F2E" opacity="1.000000" stroke="none" 
	d="
M364.010925,172.547531 
	C359.993042,169.159698 359.769165,163.370331 363.745300,159.098389 
	C364.111359,163.364487 364.110474,167.727982 364.010925,172.547531 
z"/>
<path fill="#332F2E" opacity="1.000000" stroke="none" 
	d="
M363.458954,103.537621 
	C361.935272,102.625595 360.073059,101.480904 359.303253,99.827560 
	C359.005768,99.188614 361.185730,97.396172 362.596741,96.063797 
	C363.156525,98.366180 363.356567,100.734024 363.458954,103.537621 
z"/>
<path fill="#332F2E" opacity="1.000000" stroke="none" 
	d="
M323.361877,59.171658 
	C326.734253,58.646347 330.448883,58.060261 334.165039,58.049965 
	C340.231567,58.033157 346.299103,58.391781 352.665649,58.887482 
	C343.984467,59.503654 335.004425,59.845093 326.022095,60.107853 
	C325.257538,60.130222 324.477600,59.627991 323.361877,59.171658 
z"/>
<path fill="#332F2E" opacity="1.000000" stroke="none" 
	d="
M356.114288,177.554108 
	C356.501923,179.769592 357.109406,182.439484 357.137146,185.115372 
	C357.173401,188.617096 356.751526,192.123566 356.217407,195.798157 
	C355.964142,189.982620 356.020203,183.996918 356.114288,177.554108 
z"/>
<path fill="#959490" opacity="1.000000" stroke="none" 
	d="
M321.018311,50.071014 
	C321.526642,50.104656 322.055573,49.913933 322.362976,49.540741 
	C322.775421,49.040039 323.016663,48.398300 323.887817,46.789700 
	C325.282440,49.666298 326.080139,51.311672 327.197540,53.616524 
	C319.083649,53.038677 310.994843,56.369274 305.050110,48.125721 
	C310.346832,48.672276 315.643524,49.218834 321.018311,50.071014 
M310.517609,50.484337 
	C310.499420,50.824032 310.481232,51.163727 310.463043,51.503418 
	C310.590668,51.265316 310.718292,51.027210 310.517609,50.484337 
z"/>
<path fill="#2E2B2D" opacity="1.000000" stroke="none" 
	d="
M310.681763,50.636723 
	C310.718292,51.027210 310.590668,51.265316 310.463013,51.503422 
	C310.481232,51.163727 310.499420,50.824032 310.681763,50.636723 
z"/>
</svg>